<?xml version="1.0" encoding="UTF-8" standalone="no"?>
<!DOCTYPE svg PUBLIC "-//W3C//DTD SVG 1.1//EN" "http://www.w3.org/Graphics/SVG/1.1/DTD/svg11.dtd">
<svg width="100%" height="100%" viewBox="0 0 54 89" version="1.1" xmlns="http://www.w3.org/2000/svg" xmlns:xlink="http://www.w3.org/1999/xlink" xml:space="preserve" xmlns:serif="http://www.serif.com/" style="fill-rule:evenodd;clip-rule:evenodd;stroke-linejoin:round;stroke-miterlimit:2;">
    <g transform="matrix(-1,0,0,1,53.606992,0)">
        <path d="M52.858,20.884C53.731,24.197 53.842,27.662 53.186,31.019L53.044,31.689L53.044,31.692C52.622,33.502 51.93,35.238 50.992,36.842L50.7,37.323C49.211,39.702 47.225,41.734 44.876,43.277L44.869,43.283C44.084,43.779 43.265,44.217 42.419,44.597C42.245,47.058 41.817,49.495 41.138,51.868L40.964,52.459C40.071,55.401 38.842,58.233 37.303,60.896L37.303,60.897C36.47,62.34 35.545,63.728 34.535,65.053L34.151,65.543C33.762,66.029 33.361,66.502 32.982,66.968L32.977,66.972C32.713,67.289 32.436,67.601 32.158,67.906L31.339,68.802L31.33,68.811L30.478,69.69C28.471,71.718 26.318,73.597 24.036,75.314C19.846,78.487 15.368,81.146 10.824,83.559C10.997,83.513 11.17,83.469 11.343,83.424L11.344,83.424C13.131,82.957 14.912,82.499 16.627,82.094C16.666,82.081 16.71,82.061 16.808,82.02C16.897,81.982 17.017,81.933 17.153,81.9L19.934,81.192C21.159,80.878 22.532,80.519 23.598,80.223L23.612,80.22C24.514,79.996 25.239,79.955 25.758,80.101C26.023,80.176 26.272,80.31 26.442,80.533C26.619,80.766 26.671,81.043 26.631,81.308C26.558,81.796 26.181,82.259 25.705,82.639C25.207,83.035 24.52,83.405 23.673,83.688C21.341,84.471 20.444,84.868 19.519,85.235C18.576,85.609 17.628,85.944 15.233,86.592L13.621,87.023C12.008,87.449 10.393,87.858 8.779,88.262L8.778,88.262C8.243,88.396 7.719,88.534 7.13,88.671L6.639,88.777C6.147,88.872 5.649,88.935 5.148,88.965L5.141,88.965C4.757,88.983 4.372,88.967 3.991,88.919L3.99,88.921C3.559,88.868 3.135,88.76 2.731,88.599L2.732,88.598C1.811,88.255 1.029,87.616 0.513,86.78L0.507,86.772L0.508,86.772C0.32,86.454 0.182,86.109 0.097,85.75L0.097,85.751C0.095,85.745 0.095,85.738 0.093,85.732L0.092,85.731L0.093,85.73C0.076,85.668 0.063,85.611 0.054,85.56L0.053,85.553C-0.032,85.052 -0.015,84.539 0.103,84.045L0.104,84.045C0.201,83.638 0.349,83.246 0.546,82.877L0.548,82.873C0.857,82.312 1.226,81.785 1.648,81.303L1.649,81.303L3.584,79.036L3.585,79.034C4.871,77.532 6.172,76.028 7.51,74.564C8.157,73.856 8.843,73.4 9.475,73.215C10.099,73.034 10.778,73.101 11.191,73.623C11.585,74.121 11.578,74.843 11.315,75.598C11.078,76.275 10.61,77.069 9.866,77.959L9.53,78.346L9.529,78.347L6.649,81.536C10.182,79.674 13.673,77.768 16.999,75.635L17.003,75.632C20.425,73.493 23.611,70.998 26.507,68.188L27.275,67.416C29.044,65.594 30.673,63.64 32.147,61.571L32.148,61.571C33.78,59.219 35.133,56.684 36.179,54.02C37.211,51.389 37.906,48.637 38.246,45.831C37.16,46 36.058,46.046 34.961,45.961L34.959,45.961C32.599,45.768 30.318,45.014 28.31,43.761L28.309,43.76C26.326,42.511 24.632,40.852 23.344,38.895C22.712,37.937 22.197,36.907 21.809,35.828L21.65,35.362C21.444,34.719 21.294,34.058 21.204,33.389L21.205,33.387C21.161,33.048 21.138,32.705 21.136,32.362C21.114,32.02 21.119,31.676 21.152,31.335C21.181,29.894 21.489,28.472 22.061,27.149L22.179,26.881C22.793,25.553 23.722,24.393 24.886,23.502L24.893,23.496C26.196,22.535 27.782,22.036 29.4,22.076L29.408,22.076C30.928,22.138 32.405,22.595 33.694,23.402C34.707,24.029 35.632,24.787 36.446,25.655L36.788,26.034C37.224,26.523 37.63,27.039 38.005,27.576L38.015,27.59C38.256,27.962 38.526,28.356 38.775,28.765L39.015,29.18C39.645,30.251 40.188,31.372 40.636,32.531C41.087,33.675 41.451,34.852 41.726,36.05C42.035,37.385 42.241,38.742 42.345,40.108C43.147,39.61 43.903,39.039 44.6,38.402L44.601,38.402C45.418,37.647 46.157,36.813 46.806,35.91L46.805,35.91C47.92,34.348 48.732,32.589 49.194,30.726C49.666,28.818 49.824,26.846 49.663,24.888L49.662,24.886C49.505,22.883 49.066,20.912 48.358,19.031L48.357,19.029C48.005,18.079 47.592,17.154 47.119,16.258L46.748,15.592C46.366,14.934 45.953,14.293 45.511,13.673C44.903,12.838 44.227,12.053 43.492,11.327L43.49,11.326C42.718,10.553 41.883,9.805 41.076,9.085L41.077,9.084C39.432,7.666 37.692,6.361 35.87,5.181L35.856,5.172C35.232,4.738 34.578,4.349 33.9,4.008C33.114,3.642 32.461,3.333 31.955,3.061C31.459,2.794 31.049,2.537 30.793,2.265C30.663,2.127 30.542,1.956 30.49,1.75C30.432,1.526 30.467,1.301 30.583,1.105C30.689,0.927 30.85,0.795 31.01,0.696C31.17,0.597 31.361,0.512 31.572,0.436C31.563,0.442 31.563,0.445 31.576,0.43C31.599,0.405 31.597,0.405 31.641,0.355C31.672,0.319 31.717,0.269 31.777,0.219C32.073,-0.027 32.452,-0.049 32.948,0.069L32.962,0.073C32.97,0.075 32.987,0.079 33.019,0.087C33.033,0.09 33.053,0.096 33.074,0.101C35.935,0.65 38.334,2.397 40.59,4.001C43.486,6.02 46.054,8.473 48.204,11.273L48.205,11.275C50.379,14.137 51.961,17.404 52.857,20.884L52.858,20.884ZM37.806,37.023C37.273,34.716 36.357,32.513 35.095,30.508L35.092,30.505C34.778,29.998 34.433,29.51 34.057,29.046L34.056,29.047C33.688,28.599 33.286,28.177 32.856,27.788L32.847,27.781C32.079,27.056 31.151,26.522 30.138,26.224C29.722,26.105 29.285,26.072 28.856,26.124C28.43,26.176 28.018,26.311 27.644,26.523C26.922,26.974 26.333,27.606 25.936,28.355L25.777,28.684L25.772,28.696L25.613,29.062C25.514,29.308 25.43,29.56 25.36,29.816L25.266,30.202L25.265,30.21C25.207,30.464 25.17,30.722 25.154,30.982L25.118,31.429C25.106,31.559 25.097,31.68 25.098,31.818L25.098,31.817C25.11,32.932 25.331,34.036 25.749,35.07L25.75,35.073C27.334,39.059 31.565,42.045 35.739,42.052L35.741,42.052C36.643,42.057 37.543,41.955 38.42,41.749C38.382,40.477 38.243,39.21 38.006,37.961L37.886,37.371L37.806,37.023Z" style="fill:white;fill-rule:nonzero;"/>
    </g>
</svg>
