<?xml version="1.0" encoding="UTF-8" standalone="no"?>
<!DOCTYPE svg PUBLIC "-//W3C//DTD SVG 1.1//EN" "http://www.w3.org/Graphics/SVG/1.1/DTD/svg11.dtd">
<svg width="100%" height="100%" viewBox="0 0 116 119" version="1.1" xmlns="http://www.w3.org/2000/svg" xmlns:xlink="http://www.w3.org/1999/xlink" xml:space="preserve" xmlns:serif="http://www.serif.com/" style="fill-rule:evenodd;clip-rule:evenodd;stroke-linejoin:round;stroke-miterlimit:2;">
    <g transform="matrix(1,0,0,1,-11680.232371,-1097.198858)">
        <g transform="matrix(4.556707,0,0,4.556707,7680.124638,418.818732)">
            <path d="M891.79,162.978L892.452,162.692C892.91,162.762 903.582,161.505 903.293,173.471C903.238,175.754 889.984,175.736 891.79,162.978Z" style="fill:rgb(123,206,146);"/>
        </g>
        <g transform="matrix(4.556707,0,0,4.556707,7680.124638,418.818732)">
            <path d="M891.798,160.269C891.706,159.087 890.86,148.159 901.539,149.103C903.589,149.284 906.305,160.447 893.522,160.745C892.948,160.586 892.373,160.428 891.798,160.269Z" style="fill:rgb(123,206,146);"/>
        </g>
        <g transform="matrix(4.556707,0,0,4.556707,7680.124638,418.818732)">
            <path d="M889.527,159.504C883.513,166.249 874.122,150.147 879.405,149.109C889.505,147.127 889.525,158.343 889.527,159.504Z" style="fill:rgb(123,206,146);"/>
        </g>
        <g transform="matrix(4.556707,0,0,4.556707,7680.124638,418.818732)">
            <path d="M889.332,162.972C889.744,165.326 889.624,167.167 889.601,167.532C889.206,173.623 875.82,180.153 878.672,168.554C879.923,163.468 888.371,163.023 889.332,162.972Z" style="fill:rgb(123,206,146);"/>
        </g>
    </g>
</svg>
