<?xml version="1.0" encoding="UTF-8" standalone="no"?>
<!DOCTYPE svg PUBLIC "-//W3C//DTD SVG 1.1//EN" "http://www.w3.org/Graphics/SVG/1.1/DTD/svg11.dtd">
<svg width="100%" height="100%" viewBox="0 0 185 184" version="1.1" xmlns="http://www.w3.org/2000/svg" xmlns:xlink="http://www.w3.org/1999/xlink" xml:space="preserve" xmlns:serif="http://www.serif.com/" style="fill-rule:evenodd;clip-rule:evenodd;stroke-linejoin:round;stroke-miterlimit:2;">
    <g transform="matrix(4.16667,0,0,4.16667,172.126,142.974)">
        <path d="M0,-24.242C0.059,-26.373 -0.575,-28.571 -2.59,-30.178C-3.984,-31.289 -4.98,-31.132 -6.017,-29.689C-6.767,-28.644 -7.306,-27.485 -7.739,-26.28C-9.259,-22.059 -9.827,-17.601 -10.94,-13.278C-11.132,-12.529 -10.8,-12.357 -10.1,-12.55C-8.157,-13.083 -6.304,-13.839 -4.699,-15.051C-1.779,-17.258 0.004,-20.114 0,-24.242M-32.009,-7.226C-32.81,-7.234 -33.6,-7.201 -34.352,-6.859C-37.105,-5.607 -39.023,-1.953 -38.394,0.86C-37.619,4.325 -35.066,6.49 -31.557,6.349C-26.623,6.152 -22.854,3.802 -20.148,-0.308C-19.803,-0.833 -19.898,-1.146 -20.404,-1.476C-22.507,-2.849 -24.476,-4.43 -26.693,-5.626C-28.349,-6.52 -30.049,-7.319 -32.009,-7.226M-7.783,2.89C-10.448,2.844 -13.021,2.323 -15.443,1.212C-16.313,0.812 -16.76,0.959 -17.278,1.755C-19.954,5.859 -23.645,8.484 -28.517,9.427C-34.531,10.59 -39.808,7.317 -41.079,1.548C-42.595,-5.334 -36.415,-11.512 -29.578,-9.943C-27.164,-9.389 -25.049,-8.189 -23.007,-6.844C-21.641,-5.943 -20.278,-5.035 -18.934,-4.102C-18.364,-3.706 -18.01,-3.791 -17.732,-4.424C-17.204,-5.63 -16.691,-6.845 -16.098,-8.02C-15.598,-9.012 -15.832,-9.403 -16.936,-9.588C-19.813,-10.072 -22.485,-11.115 -24.74,-13.014C-27.02,-14.935 -28.361,-17.438 -28.967,-20.339C-29.046,-20.717 -29.008,-21.138 -28.937,-21.523C-28.862,-21.941 -28.594,-22.264 -28.123,-22.263C-27.655,-22.262 -27.601,-21.877 -27.497,-21.521C-25.9,-16.073 -22.147,-13.101 -16.668,-12.129C-14.91,-11.817 -14.695,-11.953 -14.243,-13.675C-13.179,-17.729 -12.54,-21.886 -11.302,-25.896C-10.533,-28.384 -9.64,-30.824 -7.732,-32.722C-5.925,-34.521 -3.664,-34.832 -1.515,-33.466C2.217,-31.094 3.406,-27.45 2.991,-23.314C2.312,-16.542 -1.881,-11.807 -8.896,-10.171C-11.361,-9.596 -12.712,-8.617 -13.249,-6.183C-13.518,-4.96 -14.213,-3.826 -14.747,-2.667C-14.983,-2.154 -15.011,-1.775 -14.425,-1.493C-11.469,-0.072 -8.432,0.9 -5.08,0.426C-3.623,0.22 -2.486,-0.542 -1.4,-1.444C-1.104,-1.689 -0.782,-2.109 -0.37,-1.8C0.024,-1.505 -0.251,-1.056 -0.382,-0.698C-0.819,0.493 -1.723,1.271 -2.798,1.849C-4.35,2.684 -6.036,2.941 -7.783,2.89" style="fill:white;fill-rule:nonzero;"/>
    </g>
</svg>
